# MagicaVoxel @ Ephtracy

# group
o 

# material
mtllib untitled.mtl
usemtl palette

# normals
vn -1 0 0
vn 1 0 0
vn 0 0 1
vn 0 0 -1
vn 0 -1 0
vn 0 1 0

# texcoords
vt 0.447266 0.5
vt 0.564453 0.5
vt 0.728516 0.5
vt 0.994141 0.5

# verts
v -0.3 0.2 0
v -0.3 0.2 -0.1
v -0.3 0.6 0
v -0.3 0.6 -0.1
v -0.2 0.1 0
v -0.2 0.1 -0.1
v -0.2 0.2 0
v -0.2 0.2 -0.1
v -0.2 0.6 0
v -0.2 0.6 -0.1
v -0.2 0.7 0
v -0.2 0.7 -0.1
v -0.1 0 0
v -0.1 0 -0.1
v -0.1 0.1 0
v -0.1 0.1 -0.1
v -0.1 0.7 0
v -0.1 0.7 -0.1
v -0.1 0.8 0
v -0.1 0.8 -0.1
v 0 0.8 0
v 0 0.8 -0.1
v 0 0.9 0
v 0 0.9 -0.1
v 0.2 0.9 0
v 0.2 0.9 -0.1
v 0.2 1 0
v 0.2 1 -0.1
v 0.2 0 0
v 0.2 0 -0.1
v 0.2 0.1 0
v 0.2 0.1 -0.1
v 0.2 0.8 0
v 0.2 0.8 -0.1
v 0.2 0.9 0
v 0.2 0.9 -0.1
v 0.3 0.1 0
v 0.3 0.1 -0.1
v 0.3 0.2 0
v 0.3 0.2 -0.1
v 0.3 0.5 0
v 0.3 0.5 -0.1
v 0.3 0.8 0
v 0.3 0.8 -0.1
v 0.3 0.9 0
v 0.3 0.9 -0.1
v 0.3 1 0
v 0.3 1 -0.1
v 0.4 0.2 0
v 0.4 0.2 -0.1
v 0.4 0.5 0
v 0.4 0.5 -0.1
v -0.3 0.2 0
v -0.3 0.6 0
v -0.2 0.1 0
v -0.2 0.2 0
v -0.2 0.6 0
v -0.2 0.7 0
v -0.1 0 0
v -0.1 0.1 0
v -0.1 0.2 0
v -0.1 0.3 0
v -0.1 0.5 0
v -0.1 0.6 0
v -0.1 0.7 0
v -0.1 0.8 0
v 0 0.2 0
v 0 0.3 0
v 0 0.5 0
v 0 0.6 0
v 0 0.7 0
v 0 0.8 0
v 0 0.9 0
v 0.1 0.2 0
v 0.1 0.3 0
v 0.1 0.5 0
v 0.1 0.6 0
v 0.1 0.7 0
v 0.2 0 0
v 0.2 0.1 0
v 0.2 0.2 0
v 0.2 0.3 0
v 0.2 0.5 0
v 0.2 0.6 0
v 0.2 0.8 0
v 0.2 0.9 0
v 0.2 1 0
v 0.3 0.1 0
v 0.3 0.2 0
v 0.3 0.5 0
v 0.3 0.8 0
v 0.3 0.9 0
v 0.3 1 0
v 0.4 0.2 0
v 0.4 0.5 0
v -0.3 0.2 -0.1
v -0.3 0.6 -0.1
v -0.2 0.1 -0.1
v -0.2 0.2 -0.1
v -0.2 0.6 -0.1
v -0.2 0.7 -0.1
v -0.1 0 -0.1
v -0.1 0.1 -0.1
v -0.1 0.2 -0.1
v -0.1 0.3 -0.1
v -0.1 0.5 -0.1
v -0.1 0.6 -0.1
v -0.1 0.7 -0.1
v -0.1 0.8 -0.1
v 0 0.2 -0.1
v 0 0.3 -0.1
v 0 0.5 -0.1
v 0 0.6 -0.1
v 0 0.7 -0.1
v 0 0.8 -0.1
v 0 0.9 -0.1
v 0.1 0.2 -0.1
v 0.1 0.3 -0.1
v 0.1 0.5 -0.1
v 0.1 0.6 -0.1
v 0.1 0.7 -0.1
v 0.2 0 -0.1
v 0.2 0.1 -0.1
v 0.2 0.2 -0.1
v 0.2 0.3 -0.1
v 0.2 0.5 -0.1
v 0.2 0.6 -0.1
v 0.2 0.8 -0.1
v 0.2 0.9 -0.1
v 0.2 1 -0.1
v 0.3 0.1 -0.1
v 0.3 0.2 -0.1
v 0.3 0.5 -0.1
v 0.3 0.8 -0.1
v 0.3 0.9 -0.1
v 0.3 1 -0.1
v 0.4 0.2 -0.1
v 0.4 0.5 -0.1
v -0.1 0 0
v 0.2 0 0
v -0.1 0 -0.1
v 0.2 0 -0.1
v -0.2 0.1 0
v -0.1 0.1 0
v 0.2 0.1 0
v 0.3 0.1 0
v -0.2 0.1 -0.1
v -0.1 0.1 -0.1
v 0.2 0.1 -0.1
v 0.3 0.1 -0.1
v -0.3 0.2 0
v -0.2 0.2 0
v 0.3 0.2 0
v 0.4 0.2 0
v -0.3 0.2 -0.1
v -0.2 0.2 -0.1
v 0.3 0.2 -0.1
v 0.4 0.2 -0.1
v 0.2 0.9 0
v 0.3 0.9 0
v 0.2 0.9 -0.1
v 0.3 0.9 -0.1
v 0.3 0.5 0
v 0.4 0.5 0
v 0.3 0.5 -0.1
v 0.4 0.5 -0.1
v -0.3 0.6 0
v -0.2 0.6 0
v -0.3 0.6 -0.1
v -0.2 0.6 -0.1
v -0.2 0.7 0
v -0.1 0.7 0
v -0.2 0.7 -0.1
v -0.1 0.7 -0.1
v -0.1 0.8 0
v 0 0.8 0
v 0.2 0.8 0
v 0.3 0.8 0
v -0.1 0.8 -0.1
v 0 0.8 -0.1
v 0.2 0.8 -0.1
v 0.3 0.8 -0.1
v 0 0.9 0
v 0.2 0.9 0
v 0 0.9 -0.1
v 0.2 0.9 -0.1
v 0.2 1 0
v 0.3 1 0
v 0.2 1 -0.1
v 0.3 1 -0.1

# faces
f 3/3/1 2/3/1 1/3/1
f 4/3/1 2/3/1 3/3/1
f 7/3/1 6/3/1 5/3/1
f 8/3/1 6/3/1 7/3/1
f 11/3/1 10/3/1 9/3/1
f 12/3/1 10/3/1 11/3/1
f 15/3/1 14/3/1 13/3/1
f 16/3/1 14/3/1 15/3/1
f 19/3/1 18/3/1 17/3/1
f 20/3/1 18/3/1 19/3/1
f 23/3/1 22/3/1 21/3/1
f 24/3/1 22/3/1 23/3/1
f 27/3/1 26/3/1 25/3/1
f 28/3/1 26/3/1 27/3/1
f 29/3/2 30/3/2 31/3/2
f 31/3/2 30/3/2 32/3/2
f 33/3/2 34/3/2 35/3/2
f 35/3/2 34/3/2 36/3/2
f 37/3/2 38/3/2 39/3/2
f 39/3/2 38/3/2 40/3/2
f 41/3/2 42/3/2 43/3/2
f 43/3/2 42/3/2 44/3/2
f 45/3/2 46/3/2 47/3/2
f 47/3/2 46/3/2 48/3/2
f 49/3/2 50/3/2 51/3/2
f 51/3/2 50/3/2 52/3/2
f 56/3/3 54/3/3 53/3/3
f 57/3/3 54/3/3 56/3/3
f 60/3/3 56/3/3 55/3/3
f 61/1/3 57/1/3 56/1/3
f 61/3/3 56/3/3 60/3/3
f 62/1/3 57/1/3 61/1/3
f 63/1/3 57/1/3 62/1/3
f 64/3/3 58/3/3 57/3/3
f 64/1/3 57/1/3 63/1/3
f 65/3/3 58/3/3 64/3/3
f 67/1/3 61/1/3 60/1/3
f 67/1/3 62/1/3 61/1/3
f 68/2/3 63/2/3 62/2/3
f 68/1/3 62/1/3 67/1/3
f 69/4/3 64/4/3 63/4/3
f 69/2/3 63/2/3 68/2/3
f 70/1/3 65/1/3 64/1/3
f 70/4/3 64/4/3 69/4/3
f 71/3/3 66/3/3 65/3/3
f 71/1/3 65/1/3 70/1/3
f 72/3/3 66/3/3 71/3/3
f 74/1/3 67/1/3 60/1/3
f 74/2/3 70/2/3 69/2/3
f 74/2/3 69/2/3 68/2/3
f 74/2/3 71/2/3 70/2/3
f 74/2/3 68/2/3 67/2/3
f 75/2/3 71/2/3 74/2/3
f 76/2/3 71/2/3 75/2/3
f 77/2/3 71/2/3 76/2/3
f 78/1/3 72/1/3 71/1/3
f 78/2/3 71/2/3 77/2/3
f 79/3/3 60/3/3 59/3/3
f 80/1/3 74/1/3 60/1/3
f 80/3/3 60/3/3 79/3/3
f 80/1/3 75/1/3 74/1/3
f 81/1/3 75/1/3 80/1/3
f 82/2/3 76/2/3 75/2/3
f 82/1/3 75/1/3 81/1/3
f 83/4/3 77/4/3 76/4/3
f 83/2/3 76/2/3 82/2/3
f 84/1/3 78/1/3 77/1/3
f 84/4/3 77/4/3 83/4/3
f 85/3/3 73/3/3 72/3/3
f 85/1/3 78/1/3 84/1/3
f 85/1/3 72/1/3 78/1/3
f 86/3/3 73/3/3 85/3/3
f 88/3/3 81/3/3 80/3/3
f 89/1/3 82/1/3 81/1/3
f 89/3/3 81/3/3 88/3/3
f 89/1/3 83/1/3 82/1/3
f 90/3/3 84/3/3 83/3/3
f 90/1/3 83/1/3 89/1/3
f 90/3/3 85/3/3 84/3/3
f 91/3/3 85/3/3 90/3/3
f 92/3/3 87/3/3 86/3/3
f 93/3/3 87/3/3 92/3/3
f 94/3/3 90/3/3 89/3/3
f 95/3/3 90/3/3 94/3/3
f 96/3/4 97/3/4 99/3/4
f 99/3/4 97/3/4 100/3/4
f 98/3/4 99/3/4 103/3/4
f 99/1/4 100/1/4 104/1/4
f 103/3/4 99/3/4 104/3/4
f 104/1/4 100/1/4 105/1/4
f 105/1/4 100/1/4 106/1/4
f 100/3/4 101/3/4 107/3/4
f 106/1/4 100/1/4 107/1/4
f 107/3/4 101/3/4 108/3/4
f 103/1/4 104/1/4 110/1/4
f 104/1/4 105/1/4 110/1/4
f 105/2/4 106/2/4 111/2/4
f 110/1/4 105/1/4 111/1/4
f 106/4/4 107/4/4 112/4/4
f 111/2/4 106/2/4 112/2/4
f 107/1/4 108/1/4 113/1/4
f 112/4/4 107/4/4 113/4/4
f 108/3/4 109/3/4 114/3/4
f 113/1/4 108/1/4 114/1/4
f 114/3/4 109/3/4 115/3/4
f 103/1/4 110/1/4 117/1/4
f 112/2/4 113/2/4 117/2/4
f 111/2/4 112/2/4 117/2/4
f 113/2/4 114/2/4 117/2/4
f 110/2/4 111/2/4 117/2/4
f 117/2/4 114/2/4 118/2/4
f 118/2/4 114/2/4 119/2/4
f 119/2/4 114/2/4 120/2/4
f 114/1/4 115/1/4 121/1/4
f 120/2/4 114/2/4 121/2/4
f 102/3/4 103/3/4 122/3/4
f 103/1/4 117/1/4 123/1/4
f 122/3/4 103/3/4 123/3/4
f 117/1/4 118/1/4 123/1/4
f 123/1/4 118/1/4 124/1/4
f 118/2/4 119/2/4 125/2/4
f 124/1/4 118/1/4 125/1/4
f 119/4/4 120/4/4 126/4/4
f 125/2/4 119/2/4 126/2/4
f 120/1/4 121/1/4 127/1/4
f 126/4/4 120/4/4 127/4/4
f 115/3/4 116/3/4 128/3/4
f 127/1/4 121/1/4 128/1/4
f 121/1/4 115/1/4 128/1/4
f 128/3/4 116/3/4 129/3/4
f 123/3/4 124/3/4 131/3/4
f 124/1/4 125/1/4 132/1/4
f 131/3/4 124/3/4 132/3/4
f 125/1/4 126/1/4 132/1/4
f 126/3/4 127/3/4 133/3/4
f 132/1/4 126/1/4 133/1/4
f 127/3/4 128/3/4 133/3/4
f 133/3/4 128/3/4 134/3/4
f 129/3/4 130/3/4 135/3/4
f 135/3/4 130/3/4 136/3/4
f 132/3/4 133/3/4 137/3/4
f 137/3/4 133/3/4 138/3/4
f 141/3/5 140/3/5 139/3/5
f 142/3/5 140/3/5 141/3/5
f 147/3/5 144/3/5 143/3/5
f 148/3/5 144/3/5 147/3/5
f 149/3/5 146/3/5 145/3/5
f 150/3/5 146/3/5 149/3/5
f 155/3/5 152/3/5 151/3/5
f 156/3/5 152/3/5 155/3/5
f 157/3/5 154/3/5 153/3/5
f 158/3/5 154/3/5 157/3/5
f 161/3/5 160/3/5 159/3/5
f 162/3/5 160/3/5 161/3/5
f 163/3/6 164/3/6 165/3/6
f 165/3/6 164/3/6 166/3/6
f 167/3/6 168/3/6 169/3/6
f 169/3/6 168/3/6 170/3/6
f 171/3/6 172/3/6 173/3/6
f 173/3/6 172/3/6 174/3/6
f 175/3/6 176/3/6 179/3/6
f 179/3/6 176/3/6 180/3/6
f 177/3/6 178/3/6 181/3/6
f 181/3/6 178/3/6 182/3/6
f 183/3/6 184/3/6 185/3/6
f 185/3/6 184/3/6 186/3/6
f 187/3/6 188/3/6 189/3/6
f 189/3/6 188/3/6 190/3/6
